<svg width="25" height="24" viewBox="0 0 25 24" fill="none" xmlns="http://www.w3.org/2000/svg">
<g clip-path="url(#clip0_521_141)">
<path d="M12.3334 22C13.4334 22 14.3334 21.1 14.3334 20H10.3334C10.3334 21.1 11.2234 22 12.3334 22ZM18.3334 16V11C18.3334 7.93 16.6934 5.36 13.8334 4.68V4C13.8334 3.17 13.1634 2.5 12.3334 2.5C11.5034 2.5 10.8334 3.17 10.8334 4V4.68C7.96343 5.36 6.33343 7.92 6.33343 11V16L5.04343 17.29C4.41343 17.92 4.85343 19 5.74343 19H18.9134C19.8034 19 20.2534 17.92 19.6234 17.29L18.3334 16Z" fill="#7043CF"/>
</g>
<defs>
<clipPath id="clip0_521_141">
<rect width="24" height="24" fill="white" transform="translate(0.333374)"/>
</clipPath>
</defs>
</svg>
