<svg width="25" height="24" viewBox="0 0 25 24" fill="none" xmlns="http://www.w3.org/2000/svg">
<g clip-path="url(#clip0_521_138)">
<path d="M7.16663 21H3.66663C3.11663 21 2.66663 20.55 2.66663 20V10C2.66663 9.45 3.11663 9 3.66663 9H7.16663C7.71663 9 8.16663 9.45 8.16663 10V20C8.16663 20.55 7.71663 21 7.16663 21ZM14.4166 3H10.9166C10.3666 3 9.91663 3.45 9.91663 4V20C9.91663 20.55 10.3666 21 10.9166 21H14.4166C14.9666 21 15.4166 20.55 15.4166 20V4C15.4166 3.45 14.9666 3 14.4166 3ZM21.6666 11H18.1666C17.6166 11 17.1666 11.45 17.1666 12V20C17.1666 20.55 17.6166 21 18.1666 21H21.6666C22.2166 21 22.6666 20.55 22.6666 20V12C22.6666 11.45 22.2166 11 21.6666 11Z" fill="#7043CF"/>
</g>
<defs>
<clipPath id="clip0_521_138">
<rect width="24" height="24" fill="white" transform="translate(0.666626)"/>
</clipPath>
</defs>
</svg>
