<svg width="20" height="20" viewBox="0 0 20 20" fill="none" xmlns="http://www.w3.org/2000/svg">
<g clip-path="url(#clip0_521_210)">
<path d="M10 3.33325C5.83337 3.33325 2.27504 5.92492 0.833374 9.58325C2.27504 13.2416 5.83337 15.8333 10 15.8333C14.1667 15.8333 17.725 13.2416 19.1667 9.58325C17.725 5.92492 14.1667 3.33325 10 3.33325ZM10 13.7499C7.70004 13.7499 5.83337 11.8833 5.83337 9.58325C5.83337 7.28325 7.70004 5.41659 10 5.41659C12.3 5.41659 14.1667 7.28325 14.1667 9.58325C14.1667 11.8833 12.3 13.7499 10 13.7499ZM10 7.08325C8.61671 7.08325 7.50004 8.19992 7.50004 9.58325C7.50004 10.9666 8.61671 12.0833 10 12.0833C11.3834 12.0833 12.5 10.9666 12.5 9.58325C12.5 8.19992 11.3834 7.08325 10 7.08325Z" fill="#A095C1"/>
</g>
<defs>
<clipPath id="clip0_521_210">
<rect width="20" height="20" fill="white"/>
</clipPath>
</defs>
</svg>
